<svg width="767" height="1617" fill="none" xmlns="http://www.w3.org/2000/svg"><g clip-path="url(#clip0)"><g filter="url(#filter0_d)"><path fill-rule="evenodd" clip-rule="evenodd" d="M383.5 1616.67c195.785 0 354.5-5.88 354.5-13.13 0-7.25-217.391-10.54-354.5-10.54S29 1596.29 29 1603.54c0 7.25 158.715 13.13 354.5 13.13z" fill="#000" fill-opacity=".01"/></g><g filter="url(#filter1_d)"><path fill-rule="evenodd" clip-rule="evenodd" d="M383.405 1613.4c189.258 0 342.683-4.7 342.683-10.5s-210.144-8.43-342.683-8.43c-132.54 0-342.684 2.63-342.684 8.43s153.425 10.5 342.684 10.5z" fill="#000" fill-opacity=".01"/></g><g filter="url(#filter2_d)"><path fill-rule="evenodd" clip-rule="evenodd" d="M383.973 1607.54c176.206 0 319.05-2.35 319.05-5.25s-195.652-4.22-319.05-4.22c-123.399 0-319.05 1.32-319.05 4.22 0 2.9 142.843 5.25 319.05 5.25z" fill="#000" fill-opacity=".01"/></g></g><g filter="url(#filter3_iiii)"><path d="M7 133.994C7 55.859 55.858 7 133.992 7h506.016C718.143 7 767 55.858 767 133.994V1478.01c0 78.13-48.858 126.99-126.992 126.99H133.992C55.857 1605 7 1556.14 7 1478.01V133.994z" fill="#FE7473"/></g><g filter="url(#filter4_d)"><path fill-rule="evenodd" clip-rule="evenodd" d="M22 1478.01C22 1547.86 64.141 1590 133.992 1590h506.016c69.85 0 111.992-42.14 111.992-111.99V133.994C752 64.143 709.859 22 640.008 22H133.992C64.142 22 22 64.142 22 133.994V1478.01z" fill="#040606"/></g><g filter="url(#filter5_d)"><path d="M28 1478.01C28 1544.54 67.454 1584 133.992 1584h506.016C706.543 1584 746 1544.54 746 1478.01V133.994C746 67.458 706.546 28 640.008 28H133.992C67.457 28 28 67.455 28 133.994V1478.01z" fill="#000"/></g><path fill-rule="evenodd" clip-rule="evenodd" d="M14 132.994V1477.01C14 1551.28 59.723 1597 133.992 1597h506.016C714.276 1597 760 1551.28 760 1477.01V132.994C760 58.724 714.277 13 640.008 13H133.992C59.724 13 14 58.725 14 132.994zM133.992 1595C61.932 1595 18 1550.96 18 1478.71V131.288C18 59.045 61.933 15 133.992 15h506.016C712.067 15 756 59.045 756 131.288V1478.71c0 72.24-43.933 116.29-115.992 116.29H133.992z" fill="url(#paint0_linear)"/><g filter="url(#filter6_ii)"><path d="M515 4a4 4 0 014-4h114a4 4 0 014 4v3H515V4z" fill="url(#paint1_linear)"/></g><g filter="url(#filter7_i)"><path d="M0 233a3 3 0 013-3h4v71H3a3 3 0 01-3-3v-65z" fill="url(#paint2_linear)"/></g><g filter="url(#filter8_i)"><path d="M0 350a3 3 0 013-3h4v107H3a3 3 0 01-3-3V350z" fill="url(#paint3_linear)"/></g><g filter="url(#filter9_i)"><path d="M0 497a3 3 0 013-3h4v107H3a3 3 0 01-3-3V497z" fill="url(#paint4_linear)"/></g><path fill-rule="evenodd" clip-rule="evenodd" d="M387 104c7.732 0 14-6.268 14-14s-6.268-14-14-14-14 6.268-14 14 6.268 14 14 14z" fill="url(#paint5_angular)"/><g filter="url(#filter10_dii)"><path fill-rule="evenodd" clip-rule="evenodd" d="M387 96a6 6 0 100-12 6 6 0 000 12z" fill="url(#paint6_radial)"/></g><mask id="a" maskUnits="userSpaceOnUse" x="381" y="84" width="12" height="12"><path fill-rule="evenodd" clip-rule="evenodd" d="M387 96a6 6 0 100-12 6 6 0 000 12z" fill="#fff"/></mask><g mask="url(#a)"><g filter="url(#filter11_f)"><path fill-rule="evenodd" clip-rule="evenodd" d="M389.25 92.665c2.87-1.657 4.636-3.97 3.946-5.165-.69-1.196-3.576-.822-6.446.835-2.87 1.657-4.637 3.97-3.946 5.165.69 1.196 3.576.822 6.446-.835z" fill="#000"/></g><path fill-rule="evenodd" clip-rule="evenodd" d="M391 90a1 1 0 100-2 1 1 0 000 2z" fill="#3FD4FF"/></g><path d="M317 149.5c0-8.562 6.932-15.5 15.501-15.5h108.998c8.559 0 15.501 6.946 15.501 15.5 0 8.562-6.932 15.5-15.501 15.5H332.501c-8.559 0-15.501-6.946-15.501-15.5z" fill="url(#paint7_linear)"/><mask id="b" maskUnits="userSpaceOnUse" x="317" y="134" width="140" height="31"><path d="M317 149.5c0-8.562 6.932-15.5 15.501-15.5h108.998c8.559 0 15.501 6.946 15.501 15.5 0 8.562-6.932 15.5-15.501 15.5H332.501c-8.559 0-15.501-6.946-15.501-15.5z" fill="#fff"/></mask><g mask="url(#b)"><g filter="url(#filter12_f)"><rect x="328" y="154" width="124" height="17" rx="8.5" fill="#364646"/></g><g filter="url(#filter13_f)"><path fill-rule="evenodd" clip-rule="evenodd" d="M442.922 156.183a2.758 2.758 0 01.843-2.986 2.762 2.762 0 012.781-.455l5.395 2.117c3.659 1.435 4.654 6.147 1.888 8.94-2.869 2.897-7.785 1.749-9.074-2.119l-1.833-5.497z" fill="#98AEAF"/></g></g><g clip-path="url(#clip1)"><path fill-rule="evenodd" clip-rule="evenodd" d="M325 149.5c0 4.134 3.358 7.5 7.501 7.5h108.998a7.495 7.495 0 007.501-7.5c0-4.134-3.358-7.5-7.501-7.5H332.501a7.495 7.495 0 00-7.501 7.5z" fill="#000"/><mask id="c" maskUnits="userSpaceOnUse" x="325" y="142" width="124" height="15"><path fill-rule="evenodd" clip-rule="evenodd" d="M325 149.5c0 4.134 3.358 7.5 7.501 7.5h108.998a7.495 7.495 0 007.501-7.5c0-4.134-3.358-7.5-7.501-7.5H332.501a7.495 7.495 0 00-7.501 7.5z" fill="#fff"/></mask><g opacity=".192"><path fill-rule="evenodd" clip-rule="evenodd" d="M325.071 149c-.047.327-.071.66-.071 1h125c0-.339-.024-.673-.071-1H325.071zm.603-2c.167-.35.361-.685.581-1h122.488c.22.315.415.65.582 1H325.674zm2.72-3a6.96 6.96 0 013.606-1h111c1.319 0 2.552.365 3.605 1H328.394zm121.316 8a7.048 7.048 0 01-.384 1H325.675a7.048 7.048 0 01-.384-1H449.71zm-1.812 3a7.052 7.052 0 01-1.291 1H328.395a7.052 7.052 0 01-1.291-1h120.794z" fill="#9FF2F7"/><path fill-rule="evenodd" clip-rule="evenodd" d="M325 148a5.922 5.922 0 011-2v9a5.922 5.922 0 01-1-2v-5zm3-5c.318.291.653.132 1 0v13c-.347-.132-.682-.291-1 0v-13zm3 0h1v14h-1v-14zm3 0h1v14h-1v-14zm3 0h1v14h-1v-14zm3 0h1v14h-1v-14zm3 0h1v14h-1v-14zm3 0h1v14h-1v-14zm3 0h1v14h-1v-14zm3 0h1v14h-1v-14zm3 0h1v14h-1v-14zm3 0h1v14h-1v-14zm3 0h1v14h-1v-14zm3 0h1v14h-1v-14zm3 0h1v14h-1v-14zm3 0h1v14h-1v-14zm3 0h1v14h-1v-14zm3 0h1v14h-1v-14zm3 0h1v14h-1v-14zm3 0h1v14h-1v-14zm3 0h1v14h-1v-14zm3 0h1v14h-1v-14zm3 0h1v14h-1v-14zm3 0h1v14h-1v-14zm3 0h1v14h-1v-14zm3 0h1v14h-1v-14zm3 0h1v14h-1v-14zm3 0h1v14h-1v-14zm3 0h1v14h-1v-14zm3 0h1v14h-1v-14zm3 0h1v14h-1v-14zm3 0h1v14h-1v-14zm3 0h1v14h-1v-14zm3 0h1v14h-1v-14zm3 0h1v14h-1v-14zm3 0h1v14h-1v-14zm3 0h1v14h-1v-14zm3 0h1v14h-1v-14zm3 0h1v14h-1v-14zm3 0h1c-.332 0-.165.006 0 0v14c-.165-.006-.332 0 0 0h-1v-14zm3 0c.347.132.682.291 1 0v13c-.318-.291-.653-.132-1 0v-13zm3 3a5.922 5.922 0 011 2v5a5.922 5.922 0 01-1 2v-9z" fill="#2B5E61"/><mask id="d" maskUnits="userSpaceOnUse" x="325" y="143" width="124" height="14"><path fill-rule="evenodd" clip-rule="evenodd" d="M325 148a5.922 5.922 0 011-2v9a5.922 5.922 0 01-1-2v-5zm3-5c.318.291.653.132 1 0v13c-.347-.132-.682-.291-1 0v-13zm3 0h1v14h-1v-14zm3 0h1v14h-1v-14zm3 0h1v14h-1v-14zm3 0h1v14h-1v-14zm3 0h1v14h-1v-14zm3 0h1v14h-1v-14zm3 0h1v14h-1v-14zm3 0h1v14h-1v-14zm3 0h1v14h-1v-14zm3 0h1v14h-1v-14zm3 0h1v14h-1v-14zm3 0h1v14h-1v-14zm3 0h1v14h-1v-14zm3 0h1v14h-1v-14zm3 0h1v14h-1v-14zm3 0h1v14h-1v-14zm3 0h1v14h-1v-14zm3 0h1v14h-1v-14zm3 0h1v14h-1v-14zm3 0h1v14h-1v-14zm3 0h1v14h-1v-14zm3 0h1v14h-1v-14zm3 0h1v14h-1v-14zm3 0h1v14h-1v-14zm3 0h1v14h-1v-14zm3 0h1v14h-1v-14zm3 0h1v14h-1v-14zm3 0h1v14h-1v-14zm3 0h1v14h-1v-14zm3 0h1v14h-1v-14zm3 0h1v14h-1v-14zm3 0h1v14h-1v-14zm3 0h1v14h-1v-14zm3 0h1v14h-1v-14zm3 0h1v14h-1v-14zm3 0h1v14h-1v-14zm3 0h1v14h-1v-14zm3 0h1c-.332 0-.165.006 0 0v14c-.165-.006-.332 0 0 0h-1v-14zm3 0c.347.132.682.291 1 0v13c-.318-.291-.653-.132-1 0v-13zm3 3a5.922 5.922 0 011 2v5a5.922 5.922 0 01-1 2v-9z" fill="#fff"/></mask></g></g><g filter="url(#filter14_i)"><path fill-rule="evenodd" clip-rule="evenodd" d="M387 1555c39.212 0 71-31.79 71-71s-31.788-71-71-71-71 31.79-71 71 31.788 71 71 71z" fill="#000"/></g><path fill-rule="evenodd" clip-rule="evenodd" d="M387 1555c39.212 0 71-31.79 71-71-51 10-91 10-142 0 0 39.21 31.788 71 71 71z" fill="url(#paint8_linear)"/><path fill-rule="evenodd" clip-rule="evenodd" d="M387 1555c39.212 0 71-31.79 71-71-51 10-91 10-142 0 0 39.21 31.788 71 71 71z" fill="url(#paint9_linear)"/><path d="M363 1497c0 5.98 5.028 11 10.996 11h26.008c5.972 0 10.996-5.03 10.996-11v-26c0-5.98-5.028-11-10.996-11h-26.008c-5.972 0-10.996 5.03-10.996 11v26z" stroke="#707070" stroke-width="4"/><rect x="59" y="231" width="656" height="1152" rx="10" fill="#070B0D"/><path fill="#1D2129" d="M67 239h640v1136H67z"/><defs><filter id="filter13_f" x="440.062" y="149.834" width="18.071" height="18.306" filterUnits="userSpaceOnUse" color-interpolation-filters="sRGB"><feFlood flood-opacity="0" result="BackgroundImageFix"/><feBlend in="SourceGraphic" in2="BackgroundImageFix" result="shape"/><feGaussianBlur stdDeviation="1.359" result="effect1_foregroundBlur"/></filter><filter id="filter0_d" x="12" y="1576" width="743" height="57.673" filterUnits="userSpaceOnUse" color-interpolation-filters="sRGB"><feFlood flood-opacity="0" result="BackgroundImageFix"/><feColorMatrix in="SourceAlpha" values="0 0 0 0 0 0 0 0 0 0 0 0 0 0 0 0 0 0 127 0"/><feOffset/><feGaussianBlur stdDeviation="8.5"/><feColorMatrix values="0 0 0 0 0 0 0 0 0 0 0 0 0 0 0 0 0 0 0.12 0"/><feBlend in2="BackgroundImageFix" result="effect1_dropShadow"/><feBlend in="SourceGraphic" in2="effect1_dropShadow" result="shape"/></filter><filter id="filter2_d" x="59.923" y="1593.07" width="648.1" height="19.469" filterUnits="userSpaceOnUse" color-interpolation-filters="sRGB"><feFlood flood-opacity="0" result="BackgroundImageFix"/><feColorMatrix in="SourceAlpha" values="0 0 0 0 0 0 0 0 0 0 0 0 0 0 0 0 0 0 127 0"/><feOffset/><feGaussianBlur stdDeviation="2.5"/><feColorMatrix values="0 0 0 0 0 0 0 0 0 0 0 0 0 0 0 0 0 0 0.24 0"/><feBlend in2="BackgroundImageFix" result="effect1_dropShadow"/><feBlend in="SourceGraphic" in2="effect1_dropShadow" result="shape"/></filter><filter id="filter3_iiii" x="5" y="5" width="764" height="1603" filterUnits="userSpaceOnUse" color-interpolation-filters="sRGB"><feFlood flood-opacity="0" result="BackgroundImageFix"/><feBlend in="SourceGraphic" in2="BackgroundImageFix" result="shape"/><feColorMatrix in="SourceAlpha" values="0 0 0 0 0 0 0 0 0 0 0 0 0 0 0 0 0 0 127 0" result="hardAlpha"/><feOffset dx="2"/><feGaussianBlur stdDeviation="1"/><feComposite in2="hardAlpha" operator="arithmetic" k2="-1" k3="1"/><feColorMatrix values="0 0 0 0 0.909332 0 0 0 0 0.21351 0 0 0 0 0.209106 0 0 0 1 0"/><feBlend in2="shape" result="effect1_innerShadow"/><feColorMatrix in="SourceAlpha" values="0 0 0 0 0 0 0 0 0 0 0 0 0 0 0 0 0 0 127 0" result="hardAlpha"/><feOffset dx="-2"/><feGaussianBlur stdDeviation="1"/><feComposite in2="hardAlpha" operator="arithmetic" k2="-1" k3="1"/><feColorMatrix values="0 0 0 0 0.909332 0 0 0 0 0.21351 0 0 0 0 0.209106 0 0 0 1 0"/><feBlend in2="effect1_innerShadow" result="effect2_innerShadow"/><feColorMatrix in="SourceAlpha" values="0 0 0 0 0 0 0 0 0 0 0 0 0 0 0 0 0 0 127 0" result="hardAlpha"/><feOffset dy="7"/><feGaussianBlur stdDeviation="1.5"/><feComposite in2="hardAlpha" operator="arithmetic" k2="-1" k3="1"/><feColorMatrix values="0 0 0 0 1 0 0 0 0 1 0 0 0 0 1 0 0 0 0.402429 0"/><feBlend in2="effect2_innerShadow" result="effect3_innerShadow"/><feColorMatrix in="SourceAlpha" values="0 0 0 0 0 0 0 0 0 0 0 0 0 0 0 0 0 0 127 0" result="hardAlpha"/><feOffset dy="-5"/><feGaussianBlur stdDeviation="1"/><feComposite in2="hardAlpha" operator="arithmetic" k2="-1" k3="1"/><feColorMatrix values="0 0 0 0 0 0 0 0 0 0 0 0 0 0 0 0 0 0 0.198653 0"/><feBlend in2="effect3_innerShadow" result="effect4_innerShadow"/></filter><filter id="filter4_d" x="18" y="10" width="738" height="1580" filterUnits="userSpaceOnUse" color-interpolation-filters="sRGB"><feFlood flood-opacity="0" result="BackgroundImageFix"/><feColorMatrix in="SourceAlpha" values="0 0 0 0 0 0 0 0 0 0 0 0 0 0 0 0 0 0 127 0"/><feOffset dy="-8"/><feGaussianBlur stdDeviation="2"/><feColorMatrix values="0 0 0 0 0.941176 0 0 0 0 0.329412 0 0 0 0 0.333333 0 0 0 1 0"/><feBlend in2="BackgroundImageFix" result="effect1_dropShadow"/><feBlend in="SourceGraphic" in2="effect1_dropShadow" result="shape"/></filter><filter id="filter5_d" x="23" y="23" width="728" height="1566" filterUnits="userSpaceOnUse" color-interpolation-filters="sRGB"><feFlood flood-opacity="0" result="BackgroundImageFix"/><feColorMatrix in="SourceAlpha" values="0 0 0 0 0 0 0 0 0 0 0 0 0 0 0 0 0 0 127 0"/><feOffset/><feGaussianBlur stdDeviation="2.5"/><feColorMatrix values="0 0 0 0 1 0 0 0 0 1 0 0 0 0 1 0 0 0 0.496915 0"/><feBlend in2="BackgroundImageFix" result="effect1_dropShadow"/><feBlend in="SourceGraphic" in2="effect1_dropShadow" result="shape"/></filter><filter id="filter6_ii" x="515" y="-2" width="122" height="9" filterUnits="userSpaceOnUse" color-interpolation-filters="sRGB"><feFlood flood-opacity="0" result="BackgroundImageFix"/><feBlend in="SourceGraphic" in2="BackgroundImageFix" result="shape"/><feColorMatrix in="SourceAlpha" values="0 0 0 0 0 0 0 0 0 0 0 0 0 0 0 0 0 0 127 0" result="hardAlpha"/><feOffset dy="-2"/><feGaussianBlur stdDeviation="1"/><feComposite in2="hardAlpha" operator="arithmetic" k2="-1" k3="1"/><feColorMatrix values="0 0 0 0 0.927429 0 0 0 0 0.3389 0 0 0 0 0.334338 0 0 0 1 0"/><feBlend in2="shape" result="effect1_innerShadow"/><feColorMatrix in="SourceAlpha" values="0 0 0 0 0 0 0 0 0 0 0 0 0 0 0 0 0 0 127 0" result="hardAlpha"/><feOffset dx="-2"/><feComposite in2="hardAlpha" operator="arithmetic" k2="-1" k3="1"/><feColorMatrix values="0 0 0 0 0.835433 0 0 0 0 0.313139 0 0 0 0 0.309299 0 0 0 1 0"/><feBlend in2="effect1_innerShadow" result="effect2_innerShadow"/></filter><filter id="filter7_i" x="0" y="230" width="8" height="71" filterUnits="userSpaceOnUse" color-interpolation-filters="sRGB"><feFlood flood-opacity="0" result="BackgroundImageFix"/><feBlend in="SourceGraphic" in2="BackgroundImageFix" result="shape"/><feColorMatrix in="SourceAlpha" values="0 0 0 0 0 0 0 0 0 0 0 0 0 0 0 0 0 0 127 0" result="hardAlpha"/><feOffset dx="1"/><feGaussianBlur stdDeviation=".5"/><feComposite in2="hardAlpha" operator="arithmetic" k2="-1" k3="1"/><feColorMatrix values="0 0 0 0 0 0 0 0 0 0 0 0 0 0 0 0 0 0 0.203267 0"/><feBlend in2="shape" result="effect1_innerShadow"/></filter><filter id="filter8_i" x="0" y="347" width="8" height="107" filterUnits="userSpaceOnUse" color-interpolation-filters="sRGB"><feFlood flood-opacity="0" result="BackgroundImageFix"/><feBlend in="SourceGraphic" in2="BackgroundImageFix" result="shape"/><feColorMatrix in="SourceAlpha" values="0 0 0 0 0 0 0 0 0 0 0 0 0 0 0 0 0 0 127 0" result="hardAlpha"/><feOffset dx="1"/><feGaussianBlur stdDeviation=".5"/><feComposite in2="hardAlpha" operator="arithmetic" k2="-1" k3="1"/><feColorMatrix values="0 0 0 0 0 0 0 0 0 0 0 0 0 0 0 0 0 0 0.203267 0"/><feBlend in2="shape" result="effect1_innerShadow"/></filter><filter id="filter9_i" x="0" y="494" width="8" height="107" filterUnits="userSpaceOnUse" color-interpolation-filters="sRGB"><feFlood flood-opacity="0" result="BackgroundImageFix"/><feBlend in="SourceGraphic" in2="BackgroundImageFix" result="shape"/><feColorMatrix in="SourceAlpha" values="0 0 0 0 0 0 0 0 0 0 0 0 0 0 0 0 0 0 127 0" result="hardAlpha"/><feOffset dx="1"/><feGaussianBlur stdDeviation=".5"/><feComposite in2="hardAlpha" operator="arithmetic" k2="-1" k3="1"/><feColorMatrix values="0 0 0 0 0 0 0 0 0 0 0 0 0 0 0 0 0 0 0.203267 0"/><feBlend in2="shape" result="effect1_innerShadow"/></filter><filter id="filter10_dii" x="379" y="83" width="15" height="16" filterUnits="userSpaceOnUse" color-interpolation-filters="sRGB"><feFlood flood-opacity="0" result="BackgroundImageFix"/><feColorMatrix in="SourceAlpha" values="0 0 0 0 0 0 0 0 0 0 0 0 0 0 0 0 0 0 127 0"/><feOffset/><feGaussianBlur stdDeviation=".5"/><feColorMatrix values="0 0 0 0 0.0150297 0 0 0 0 0.0661778 0 0 0 0 0.173576 0 0 0 0.599241 0"/><feBlend in2="BackgroundImageFix" result="effect1_dropShadow"/><feBlend in="SourceGraphic" in2="effect1_dropShadow" result="shape"/><feColorMatrix in="SourceAlpha" values="0 0 0 0 0 0 0 0 0 0 0 0 0 0 0 0 0 0 127 0" result="hardAlpha"/><feOffset dx="-2" dy="3"/><feGaussianBlur stdDeviation="1.5"/><feComposite in2="hardAlpha" operator="arithmetic" k2="-1" k3="1"/><feColorMatrix values="0 0 0 0 0 0 0 0 0 0 0 0 0 0 0 0 0 0 0.5 0"/><feBlend in2="shape" result="effect2_innerShadow"/><feColorMatrix in="SourceAlpha" values="0 0 0 0 0 0 0 0 0 0 0 0 0 0 0 0 0 0 127 0" result="hardAlpha"/><feOffset dy="-1"/><feGaussianBlur stdDeviation="1"/><feComposite in2="hardAlpha" operator="arithmetic" k2="-1" k3="1"/><feColorMatrix values="0 0 0 0 1 0 0 0 0 1 0 0 0 0 1 0 0 0 0.314934 0"/><feBlend in2="effect2_innerShadow" result="effect3_innerShadow"/></filter><filter id="filter11_f" x="379.936" y="84.082" width="16.128" height="12.836" filterUnits="userSpaceOnUse" color-interpolation-filters="sRGB"><feFlood flood-opacity="0" result="BackgroundImageFix"/><feBlend in="SourceGraphic" in2="BackgroundImageFix" result="shape"/><feGaussianBlur stdDeviation="1.359" result="effect1_foregroundBlur"/></filter><filter id="filter12_f" x="322.563" y="148.563" width="134.873" height="27.873" filterUnits="userSpaceOnUse" color-interpolation-filters="sRGB"><feFlood flood-opacity="0" result="BackgroundImageFix"/><feBlend in="SourceGraphic" in2="BackgroundImageFix" result="shape"/><feGaussianBlur stdDeviation="2.718" result="effect1_foregroundBlur"/></filter><filter id="filter1_d" x="33.721" y="1587.47" width="699.367" height="32.938" filterUnits="userSpaceOnUse" color-interpolation-filters="sRGB"><feFlood flood-opacity="0" result="BackgroundImageFix"/><feColorMatrix in="SourceAlpha" values="0 0 0 0 0 0 0 0 0 0 0 0 0 0 0 0 0 0 127 0"/><feOffset/><feGaussianBlur stdDeviation="3.5"/><feColorMatrix values="0 0 0 0 0 0 0 0 0 0 0 0 0 0 0 0 0 0 0.08 0"/><feBlend in2="BackgroundImageFix" result="effect1_dropShadow"/><feBlend in="SourceGraphic" in2="effect1_dropShadow" result="shape"/></filter><filter id="filter14_i" x="316" y="1413" width="142" height="142" filterUnits="userSpaceOnUse" color-interpolation-filters="sRGB"><feFlood flood-opacity="0" result="BackgroundImageFix"/><feBlend in="SourceGraphic" in2="BackgroundImageFix" result="shape"/><feColorMatrix in="SourceAlpha" values="0 0 0 0 0 0 0 0 0 0 0 0 0 0 0 0 0 0 127 0" result="hardAlpha"/><feOffset dy="2"/><feComposite in2="hardAlpha" operator="arithmetic" k2="-1" k3="1"/><feColorMatrix values="0 0 0 0 0.169483 0 0 0 0 0.169483 0 0 0 0 0.169483 0 0 0 1 0"/><feBlend in2="shape" result="effect1_innerShadow"/></filter><linearGradient id="paint0_linear" x1="22.998" y1="31.02" x2="22.998" y2="1576.81" gradientUnits="userSpaceOnUse"><stop stop-color="#fff" stop-opacity=".01"/><stop offset=".02" stop-color="#fff" stop-opacity=".6"/><stop offset=".967" stop-color="#fff" stop-opacity=".596"/><stop offset="1" stop-color="#fff" stop-opacity=".01"/></linearGradient><linearGradient id="paint2_linear" x1=".202" y1="232.498" x2=".202" y2="299.407" gradientUnits="userSpaceOnUse"><stop stop-color="#FA6D6D"/><stop offset=".022" stop-color="#FEC7C7"/><stop offset=".207" stop-color="#FC7170"/><stop offset=".926" stop-color="#FA6D6D"/><stop offset=".973" stop-color="#FEC7C7"/><stop offset="1" stop-color="#C24344"/></linearGradient><linearGradient id="paint3_linear" x1=".053" y1="348.613" x2=".053" y2="454" gradientUnits="userSpaceOnUse"><stop stop-color="#FA6D6D"/><stop offset=".022" stop-color="#FEC7C7"/><stop offset=".127" stop-color="#F76768"/><stop offset=".926" stop-color="#FC7170"/><stop offset=".962" stop-color="#FEC6C6"/><stop offset="1" stop-color="#C24344"/></linearGradient><linearGradient id="paint4_linear" x1=".053" y1="495.613" x2=".053" y2="601" gradientUnits="userSpaceOnUse"><stop stop-color="#FA6D6D"/><stop offset=".022" stop-color="#FEC7C7"/><stop offset=".127" stop-color="#F76768"/><stop offset=".926" stop-color="#FC7170"/><stop offset=".962" stop-color="#FEC6C6"/><stop offset="1" stop-color="#C24344"/></linearGradient><linearGradient id="paint1_linear" x1="515" y1="7" x2="637" y2="7" gradientUnits="userSpaceOnUse"><stop stop-color="#FE7473"/><stop offset=".037" stop-color="#FEC7C7"/><stop offset=".065" stop-color="#FEC7C7"/><stop offset=".121" stop-color="#FF9998"/><stop offset=".843" stop-color="#FE7675"/><stop offset=".916" stop-color="#FEC7C7"/><stop offset=".95" stop-color="#FEC7C7"/><stop offset="1" stop-color="#EF807F"/></linearGradient><linearGradient id="paint7_linear" x1="361.198" y1="138.073" x2="361.198" y2="149.5" gradientUnits="userSpaceOnUse"><stop stop-color="#0A0F11"/><stop offset="1" stop-color="#070D0F"/></linearGradient><linearGradient id="paint8_linear" x1="316" y1="1484" x2="316" y2="1555" gradientUnits="userSpaceOnUse"><stop stop-color="#101315"/><stop offset="1" stop-color="#454950"/></linearGradient><linearGradient id="paint9_linear" x1="275.406" y1="1503.69" x2="302.695" y2="1566.73" gradientUnits="userSpaceOnUse"><stop stop-opacity=".483"/><stop offset="1" stop-color="#010101" stop-opacity=".01"/></linearGradient><radialGradient id="paint6_radial" cx="0" cy="0" r="1" gradientUnits="userSpaceOnUse" gradientTransform="matrix(0 4.73633 -4.73633 0 387 90)"><stop stop-color="#1D3DFF"/><stop offset="1" stop-color="#0534FF"/></radialGradient><radialGradient id="paint5_angular" cx="0" cy="0" r="1" gradientUnits="userSpaceOnUse" gradientTransform="matrix(14 0 0 14 387 90)"><stop offset=".001" stop-color="#1A2427"/><stop offset=".169" stop-color="#2D3B3D"/><stop offset=".465" stop-color="#0A1012"/><stop offset=".647" stop-color="#070C0E"/><stop offset="1" stop-color="#192326"/></radialGradient><clipPath id="clip0"><path fill="#fff" d="M29 1593h709v24H29z"/></clipPath><clipPath id="clip1"><path fill="#fff" d="M325 142h124v15H325z"/></clipPath></defs></svg>